{
	"asset":{
		"generator":"Khronos glTF Blender I/O v4.5.47",
		"version":"2.0"
	},
	"scene":0,
	"scenes":[
		{
			"name":"Scene",
			"nodes":[
				0,
				1,
				2
			]
		}
	],
	"nodes":[
		{
			"mesh":0,
			"name":"Torus001",
			"rotation":[
				0,
				-0.7071068286895752,
				-0.7071068286895752,
				3.0908619663705394e-08
			],
			"scale":[
				5.407628536224365,
				5.407627582550049,
				5.407627582550049
			],
			"translation":[
				0.574859619140625,
				-0.3835444450378418,
				0.020341873168945312
			]
		},
		{
			"mesh":1,
			"name":"Torus002",
			"rotation":[
				0.70710688829422,
				0,
				0,
				0.7071066498756409
			],
			"scale":[
				5.407623291015625,
				5.407622814178467,
				5.407622814178467
			],
			"translation":[
				0.574859619140625,
				-0.3835444450378418,
				0.020341873168945312
			]
		},
		{
			"mesh":2,
			"name":"Torus003",
			"rotation":[
				0.70710688829422,
				0,
				0,
				0.7071066498756409
			],
			"scale":[
				5.407623291015625,
				5.407622814178467,
				5.407622814178467
			],
			"translation":[
				0.574859619140625,
				-0.3835444450378418,
				0.020341873168945312
			]
		}
	],
	"animations":[
		{
			"channels":[
				{
					"sampler":0,
					"target":{
						"node":1,
						"path":"rotation"
					}
				},
				{
					"sampler":1,
					"target":{
						"node":1,
						"path":"scale"
					}
				},
				{
					"sampler":2,
					"target":{
						"node":2,
						"path":"rotation"
					}
				},
				{
					"sampler":3,
					"target":{
						"node":2,
						"path":"scale"
					}
				}
			],
			"name":"All Animations",
			"samplers":[
				{
					"input":11,
					"interpolation":"LINEAR",
					"output":12
				},
				{
					"input":13,
					"interpolation":"LINEAR",
					"output":14
				},
				{
					"input":11,
					"interpolation":"LINEAR",
					"output":15
				},
				{
					"input":13,
					"interpolation":"STEP",
					"output":16
				}
			]
		}
	],
	"materials":[
		{
			"doubleSided":true,
			"name":"Torus001",
			"pbrMetallicRoughness":{
				"baseColorFactor":[
					0.125490203499794,
					0.40784314274787903,
					0.07058823853731155,
					1
				],
				"metallicFactor":0,
				"roughnessFactor":0
			}
		},
		{
			"doubleSided":true,
			"name":"Torus002",
			"pbrMetallicRoughness":{
				"baseColorFactor":[
					0.4745098054409027,
					0.22745098173618317,
					0.7568627595901489,
					1
				],
				"metallicFactor":0,
				"roughnessFactor":0
			}
		},
		{
			"doubleSided":true,
			"name":"Torus003",
			"pbrMetallicRoughness":{
				"baseColorFactor":[
					0.7647058963775635,
					0.2666666805744171,
					0.7960784435272217,
					1
				],
				"metallicFactor":0,
				"roughnessFactor":0
			}
		}
	],
	"meshes":[
		{
			"name":"Torus001",
			"primitives":[
				{
					"attributes":{
						"POSITION":0,
						"NORMAL":1,
						"TEXCOORD_0":2
					},
					"indices":3,
					"material":0
				}
			]
		},
		{
			"name":"Torus002",
			"primitives":[
				{
					"attributes":{
						"POSITION":4,
						"NORMAL":5,
						"TEXCOORD_0":6
					},
					"indices":7,
					"material":1
				}
			]
		},
		{
			"name":"Torus003",
			"primitives":[
				{
					"attributes":{
						"POSITION":8,
						"NORMAL":9,
						"TEXCOORD_0":10
					},
					"indices":7,
					"material":2
				}
			]
		}
	],
	"accessors":[
		{
			"bufferView":0,
			"componentType":5126,
			"count":1352,
			"max":[
				0.0011024862760677934,
				0.040000010281801224,
				0.4400000274181366
			],
			"min":[
				-0.4400000274181366,
				-0.040000010281801224,
				-0.4400000274181366
			],
			"type":"VEC3"
		},
		{
			"bufferView":1,
			"componentType":5126,
			"count":1352,
			"type":"VEC3"
		},
		{
			"bufferView":2,
			"componentType":5126,
			"count":1352,
			"type":"VEC2"
		},
		{
			"bufferView":3,
			"componentType":5123,
			"count":7344,
			"type":"SCALAR"
		},
		{
			"bufferView":4,
			"componentType":5126,
			"count":1376,
			"max":[
				0.4300000071525574,
				0.03000001050531864,
				0.4300000071525574
			],
			"min":[
				-0.0011024476261809468,
				-0.03000001050531864,
				-0.4300000071525574
			],
			"type":"VEC3"
		},
		{
			"bufferView":5,
			"componentType":5126,
			"count":1376,
			"type":"VEC3"
		},
		{
			"bufferView":6,
			"componentType":5126,
			"count":1376,
			"type":"VEC2"
		},
		{
			"bufferView":7,
			"componentType":5123,
			"count":7416,
			"type":"SCALAR"
		},
		{
			"bufferView":8,
			"componentType":5126,
			"count":1376,
			"max":[
				0.42000001668930054,
				0.02000001072883606,
				0.42000001668930054
			],
			"min":[
				-0.001102447509765625,
				-0.02000001072883606,
				-0.42000001668930054
			],
			"type":"VEC3"
		},
		{
			"bufferView":9,
			"componentType":5126,
			"count":1376,
			"type":"VEC3"
		},
		{
			"bufferView":10,
			"componentType":5126,
			"count":1376,
			"type":"VEC2"
		},
		{
			"bufferView":11,
			"componentType":5126,
			"count":81,
			"max":[
				3.3333333333333335
			],
			"min":[
				0
			],
			"type":"SCALAR"
		},
		{
			"bufferView":12,
			"componentType":5126,
			"count":81,
			"type":"VEC4"
		},
		{
			"bufferView":13,
			"componentType":5126,
			"count":2,
			"max":[
				3.3333333333333335
			],
			"min":[
				0
			],
			"type":"SCALAR"
		},
		{
			"bufferView":14,
			"componentType":5126,
			"count":2,
			"type":"VEC3"
		},
		{
			"bufferView":15,
			"componentType":5126,
			"count":81,
			"type":"VEC4"
		},
		{
			"bufferView":16,
			"componentType":5126,
			"count":2,
			"type":"VEC3"
		}
	],
	"bufferViews":[
		{
			"buffer":0,
			"byteLength":16224,
			"byteOffset":0,
			"target":34962
		},
		{
			"buffer":0,
			"byteLength":16224,
			"byteOffset":16224,
			"target":34962
		},
		{
			"buffer":0,
			"byteLength":10816,
			"byteOffset":32448,
			"target":34962
		},
		{
			"buffer":0,
			"byteLength":14688,
			"byteOffset":43264,
			"target":34963
		},
		{
			"buffer":0,
			"byteLength":16512,
			"byteOffset":57952,
			"target":34962
		},
		{
			"buffer":0,
			"byteLength":16512,
			"byteOffset":74464,
			"target":34962
		},
		{
			"buffer":0,
			"byteLength":11008,
			"byteOffset":90976,
			"target":34962
		},
		{
			"buffer":0,
			"byteLength":14832,
			"byteOffset":101984,
			"target":34963
		},
		{
			"buffer":0,
			"byteLength":16512,
			"byteOffset":116816,
			"target":34962
		},
		{
			"buffer":0,
			"byteLength":16512,
			"byteOffset":133328,
			"target":34962
		},
		{
			"buffer":0,
			"byteLength":11008,
			"byteOffset":149840,
			"target":34962
		},
		{
			"buffer":0,
			"byteLength":324,
			"byteOffset":160848
		},
		{
			"buffer":0,
			"byteLength":1296,
			"byteOffset":161172
		},
		{
			"buffer":0,
			"byteLength":8,
			"byteOffset":162468
		},
		{
			"buffer":0,
			"byteLength":24,
			"byteOffset":162476
		},
		{
			"buffer":0,
			"byteLength":1296,
			"byteOffset":162500
		},
		{
			"buffer":0,
			"byteLength":24,
			"byteOffset":163796
		}
	],
	"buffers":[
		{
			"byteLength":163820,
			"uri":"data:application/octet-stream;base64,"
		}
	]
}
